<svg width="291" height="220" viewBox="0 0 291 220" fill="none" xmlns="http://www.w3.org/2000/svg">
<g clip-path="url(#clip0_11173_124622)">
<g clip-path="url(#clip1_11173_124622)">
<rect y="41.6299" width="127.339" height="155.69" rx="9.61052" transform="rotate(-11.6872 0 41.6299)" fill="#DDE0E9"/>
<path d="M1.94679 51.0412C0.871607 45.8435 4.21357 40.7583 9.41128 39.6831L115.288 17.7817C120.486 16.7065 125.571 20.0485 126.646 25.2462L131.124 46.8921L6.4244 72.6871L1.94679 51.0412Z" fill="#ABB0BA"/>
<rect x="18.1719" y="82.0342" width="51.8968" height="14.4158" rx="2.88316" transform="rotate(-11.6872 18.1719 82.0342)" fill="white"/>
<rect x="23.4282" y="107.444" width="94.1831" height="9.61052" rx="2.88316" transform="rotate(-11.6872 23.4282 107.444)" fill="white"/>
<rect x="26.543" y="122.502" width="63.91" height="9.61052" rx="2.88316" transform="rotate(-11.6872 26.543 122.502)" fill="white"/>
<rect x="34.3306" y="160.147" width="23.0653" height="23.0653" rx="11.5326" transform="rotate(-11.6872 34.3306 160.147)" fill="white"/>
</g>
<g clip-path="url(#clip2_11173_124622)">
<rect x="134.215" width="145.892" height="178.374" rx="11.0107" transform="rotate(7.5612 134.215 0)" fill="#DDE0E9"/>
<path d="M132.766 10.915C133.567 4.88682 139.102 0.648672 145.13 1.44885L267.924 17.7484C273.952 18.5486 278.191 24.0841 277.39 30.1123L274.058 55.2168L129.434 36.0195L132.766 10.915Z" fill="#ABB0BA"/>
<rect x="138.61" y="50.5664" width="59.458" height="16.5161" rx="3.30322" transform="rotate(7.5612 138.61 50.5664)" fill="white"/>
<rect x="134.698" y="80.0371" width="107.905" height="11.0107" rx="3.30322" transform="rotate(7.5612 134.698 80.0371)" fill="white"/>
<rect x="132.38" y="97.501" width="73.2215" height="11.0107" rx="3.30322" transform="rotate(7.5612 132.38 97.501)" fill="white"/>
<rect x="126.585" y="141.161" width="26.4258" height="26.4258" rx="13.2129" transform="rotate(7.5612 126.585 141.161)" fill="white"/>
</g>
<rect x="128.536" y="-7.41832" width="159.105" height="191.587" rx="17.6172" transform="rotate(7.5612 128.536 -7.41832)" stroke="white" stroke-width="13.2129" stroke-miterlimit="16"/>
<rect x="203.178" y="147.041" width="82.3908" height="82.3908" rx="17.6552" transform="rotate(-10 203.178 147.041)" fill="#DDE0E9" stroke="white" stroke-width="14.1241"/>
<path d="M268.461 192.569L266.93 195.992C263.483 194.039 259.375 192.739 254.454 193.74C249.532 194.741 246.259 197.542 243.848 200.686L241.102 198.133C243.049 194.961 247.133 190.592 253.548 189.288C259.963 187.983 265.429 190.41 268.461 192.569Z" fill="#8F94A3"/>
<path d="M237.5 183.95L229.118 178.081C228.45 177.613 227.954 177.019 227.632 176.3C227.314 175.579 227.185 174.83 227.243 174.053C227.301 173.271 227.562 172.553 228.028 171.899C228.506 171.229 229.098 170.736 229.804 170.421C230.515 170.1 231.257 169.969 232.029 170.028C232.807 170.087 233.534 170.347 234.211 170.809L235.315 171.557L236.096 170.476C236.579 169.81 237.173 169.317 237.879 168.997C238.585 168.677 239.324 168.547 240.097 168.606C240.874 168.659 241.601 168.92 242.279 169.386C242.94 169.841 243.432 170.426 243.753 171.141C244.074 171.852 244.206 172.601 244.149 173.387C244.097 174.173 243.837 174.9 243.369 175.569L237.5 183.95Z" fill="#8F94A3"/>
<path d="M265.32 179.045L256.939 173.176C256.27 172.708 255.775 172.114 255.452 171.394C255.135 170.673 255.005 169.925 255.063 169.147C255.121 168.365 255.383 167.647 255.849 166.993C256.326 166.323 256.918 165.83 257.625 165.515C258.335 165.195 259.077 165.064 259.85 165.123C260.627 165.181 261.354 165.441 262.031 165.903L263.135 166.652L263.916 165.571C264.399 164.904 264.994 164.411 265.7 164.091C266.405 163.772 267.145 163.641 267.918 163.7C268.694 163.754 269.421 164.014 270.099 164.481C270.761 164.936 271.252 165.521 271.574 166.236C271.894 166.947 272.026 167.695 271.97 168.482C271.917 169.267 271.657 169.995 271.189 170.663L265.32 179.045Z" fill="#8F94A3"/>
</g>
<defs>
<clipPath id="clip0_11173_124622">
<rect width="290.443" height="219.999" fill="white"/>
</clipPath>
<clipPath id="clip1_11173_124622">
<rect y="41.6299" width="127.339" height="155.69" rx="9.61052" transform="rotate(-11.6872 0 41.6299)" fill="white"/>
</clipPath>
<clipPath id="clip2_11173_124622">
<rect x="134.215" width="145.892" height="178.374" rx="11.0107" transform="rotate(7.5612 134.215 0)" fill="white"/>
</clipPath>
</defs>
</svg>
